<svg id="visual" viewBox="0 0 900 600" width="900" height="600" xmlns="http://www.w3.org/2000/svg" xmlns:xlink="http://www.w3.org/1999/xlink" version="1.1"><rect x="0" y="0" width="900" height="600" fill="#ACD2ED"></rect><path d="M0 475L21.5 463.5C43 452 86 429 128.8 418.2C171.7 407.3 214.3 408.7 257.2 419.3C300 430 343 450 385.8 452.2C428.7 454.3 471.3 438.7 514.2 438.5C557 438.3 600 453.7 642.8 456.2C685.7 458.7 728.3 448.3 771.2 446.7C814 445 857 452 878.5 455.5L900 459L900 601L878.5 601C857 601 814 601 771.2 601C728.3 601 685.7 601 642.8 601C600 601 557 601 514.2 601C471.3 601 428.7 601 385.8 601C343 601 300 601 257.2 601C214.3 601 171.7 601 128.8 601C86 601 43 601 21.5 601L0 601Z" fill="#99aa38"></path><path d="M0 448L21.5 449.3C43 450.7 86 453.3 128.8 454.2C171.7 455 214.3 454 257.2 461.7C300 469.3 343 485.7 385.8 490.3C428.7 495 471.3 488 514.2 486.3C557 484.7 600 488.3 642.8 482.3C685.7 476.3 728.3 460.7 771.2 462.2C814 463.7 857 482.3 878.5 491.7L900 501L900 601L878.5 601C857 601 814 601 771.2 601C728.3 601 685.7 601 642.8 601C600 601 557 601 514.2 601C471.3 601 428.7 601 385.8 601C343 601 300 601 257.2 601C214.3 601 171.7 601 128.8 601C86 601 43 601 21.5 601L0 601Z" fill="#779630"></path><path d="M0 516L21.5 510.7C43 505.3 86 494.7 128.8 489.7C171.7 484.7 214.3 485.3 257.2 491.7C300 498 343 510 385.8 515.2C428.7 520.3 471.3 518.7 514.2 515.3C557 512 600 507 642.8 505.3C685.7 503.7 728.3 505.3 771.2 500.2C814 495 857 483 878.5 477L900 471L900 601L878.5 601C857 601 814 601 771.2 601C728.3 601 685.7 601 642.8 601C600 601 557 601 514.2 601C471.3 601 428.7 601 385.8 601C343 601 300 601 257.2 601C214.3 601 171.7 601 128.8 601C86 601 43 601 21.5 601L0 601Z" fill="#568229"></path><path d="M0 530L21.5 528.3C43 526.7 86 523.3 128.8 521.2C171.7 519 214.3 518 257.2 521.5C300 525 343 533 385.8 535.2C428.7 537.3 471.3 533.7 514.2 533.7C557 533.7 600 537.3 642.8 538.5C685.7 539.7 728.3 538.3 771.2 539.5C814 540.7 857 544.3 878.5 546.2L900 548L900 601L878.5 601C857 601 814 601 771.2 601C728.3 601 685.7 601 642.8 601C600 601 557 601 514.2 601C471.3 601 428.7 601 385.8 601C343 601 300 601 257.2 601C214.3 601 171.7 601 128.8 601C86 601 43 601 21.5 601L0 601Z" fill="#366d23"></path><path d="M0 553L21.5 556.3C43 559.7 86 566.3 128.8 567.5C171.7 568.7 214.3 564.3 257.2 562.2C300 560 343 560 385.8 562.3C428.7 564.7 471.3 569.3 514.2 570.8C557 572.3 600 570.7 642.8 570.3C685.7 570 728.3 571 771.2 569.5C814 568 857 564 878.5 562L900 560L900 601L878.5 601C857 601 814 601 771.2 601C728.3 601 685.7 601 642.8 601C600 601 557 601 514.2 601C471.3 601 428.7 601 385.8 601C343 601 300 601 257.2 601C214.3 601 171.7 601 128.8 601C86 601 43 601 21.5 601L0 601Z" fill="#14591d"></path></svg>